<svg width="349" height="113" viewBox="0 0 349 113" fill="none" xmlns="http://www.w3.org/2000/svg">
<path d="M129.703 47.7578H142.008C149.951 47.7578 155.315 48.1224 158.102 48.8516C160.914 49.5807 163.049 50.7786 164.508 52.4453C165.966 54.112 166.878 55.974 167.242 58.0312C167.607 60.0625 167.789 64.0729 167.789 70.0625V92.2109C167.789 97.888 167.516 101.69 166.969 103.617C166.448 105.518 165.523 107.016 164.195 108.109C162.867 109.177 161.227 109.932 159.273 110.375C157.32 110.792 154.378 111 150.445 111H129.703V47.7578ZM146.148 58.5781V100.18C148.518 100.18 149.977 99.7109 150.523 98.7734C151.07 97.8099 151.344 95.2188 151.344 91V66.4297C151.344 63.5651 151.253 61.7292 151.07 60.9219C150.888 60.1146 150.471 59.5286 149.82 59.1641C149.169 58.7734 147.945 58.5781 146.148 58.5781ZM190.367 47.7578V111H173.922V47.7578H190.367ZM232.008 47.7578L220.016 88.1094V111H204.781V88.1094L193.219 47.7578H208.336C210.706 60.0755 212.034 68.3698 212.32 72.6406C213.232 65.8958 214.755 57.6016 216.891 47.7578H232.008Z" fill="#E35959"/>
<path d="M95.8494 32.44C96.3294 31.8 96.8894 31.6933 97.5294 32.12C98.2227 32.5467 98.3294 33.1067 97.8494 33.8C96.036 36.52 93.5294 39.8267 90.3294 43.72C87.1294 47.56 83.8227 51.16 80.4094 54.52C78.5427 56.28 76.756 57.9067 75.0494 59.4C68.116 65.2667 62.4094 68.2 57.9294 68.2C49.716 68.2 45.6094 62.84 45.6094 52.12C45.6094 47.64 46.5427 42.9733 48.4094 38.12C50.276 33.2667 52.8894 28.6267 56.2494 24.2C59.2894 20.2 62.4627 17.0267 65.7694 14.68C69.076 12.28 71.956 11.08 74.4094 11.08C76.916 11.08 78.8094 11.88 80.0894 13.48C80.6227 14.2267 81.0227 15.1067 81.2894 16.12V16.2C81.2894 16.2533 81.2894 16.28 81.2894 16.28C81.3427 16.28 81.3694 16.3067 81.3694 16.36C81.6894 17.96 81.636 19.5867 81.2094 21.24C81.156 21.56 80.9694 21.8 80.6494 21.96C80.3827 22.12 80.0894 22.1733 79.7694 22.12C79.4494 22.0133 79.2094 21.8267 79.0494 21.56C78.8894 21.24 78.836 20.92 78.8894 20.6C79.2094 19.3733 79.236 18.12 78.9694 16.84C78.596 15.4533 77.5827 14.76 75.9294 14.76C74.3294 14.76 72.1694 15.8267 69.4494 17.96C66.7294 20.0933 64.0094 23.0267 61.2894 26.76C58.3027 30.9733 55.956 35.32 54.2494 39.8C52.596 44.2267 51.7694 48.4133 51.7694 52.36C51.7694 54.76 51.9827 56.76 52.4094 58.36C52.836 59.9067 53.4227 61.0533 54.1694 61.8C54.9694 62.5467 55.796 63.0533 56.6494 63.32C57.5027 63.5867 58.4894 63.72 59.6094 63.72C63.6094 63.72 68.2494 61.64 73.5294 57.48H73.6094C77.7694 53.9067 81.9294 49.72 86.0894 44.92C90.3027 40.0667 93.556 35.9067 95.8494 32.44ZM128.712 32.68C128.819 33 128.792 33.32 128.632 33.64C128.525 33.9067 128.312 34.12 127.992 34.28C122.285 36.52 116.179 38.1467 109.672 39.16C108.819 41.1867 107.752 43.1333 106.472 45C104.872 47.2933 103.219 49.1067 101.512 50.44C99.8585 51.72 98.3652 52.36 97.0319 52.36C96.1785 52.36 95.4052 52.2 94.7119 51.88C93.9652 51.56 93.3519 51.1067 92.8719 50.52C92.3919 49.88 92.0185 49.1067 91.7519 48.2C91.4852 47.2933 91.3519 46.3067 91.3519 45.24C91.3519 42.5733 91.9385 39.8533 93.1119 37.08C91.6185 35.5333 90.8719 33.5867 90.8719 31.24C90.8719 29.4267 91.3785 27.72 92.3919 26.12C93.3519 24.4667 94.6585 23.1867 96.3119 22.28C97.9652 21.32 99.7519 20.84 101.672 20.84C102.419 20.84 103.139 20.8933 103.832 21C104.579 21.1067 105.432 21.3733 106.392 21.8C107.352 22.2267 108.179 22.7867 108.872 23.48C109.619 24.1733 110.232 25.1867 110.712 26.52C111.245 27.8 111.512 29.2933 111.512 31C111.512 32.7067 111.219 34.5467 110.632 36.52C116.605 35.56 122.099 34.0667 127.112 32.04C127.325 31.9333 127.539 31.9067 127.752 31.96C127.965 31.96 128.152 32.04 128.312 32.2C128.472 32.3067 128.605 32.4667 128.712 32.68ZM101.832 47C103.859 44.92 105.565 42.4133 106.952 39.48C104.819 39.6933 102.792 39.8 100.872 39.8C99.9119 39.8 99.0052 39.72 98.1519 39.56C97.0852 41.8533 96.5519 43.8 96.5519 45.4C96.5519 47.8533 97.1385 49.08 98.3119 49.08C99.2719 49.08 100.392 48.44 101.672 47.16C101.725 47.1067 101.779 47.0533 101.832 47ZM107.992 36.92C108.739 34.7867 109.112 32.8133 109.112 31C109.112 28.12 108.392 26.12 106.952 25C105.512 23.8267 103.752 23.24 101.672 23.24C99.3785 23.24 97.4052 24.04 95.7519 25.64C94.0985 27.24 93.2719 29.1067 93.2719 31.24C93.2719 32.6267 93.5919 33.7733 94.2319 34.68C95.1919 32.92 96.1785 31.4533 97.1919 30.28C97.6719 29.7467 98.2585 29.4533 98.9519 29.4C99.6985 29.2933 100.339 29.4267 100.872 29.8C102.259 30.8667 102.312 32.4133 101.032 34.44C100.285 35.6133 99.7252 36.5733 99.3519 37.32C99.8852 37.3733 100.392 37.4 100.872 37.4C103.112 37.4 105.485 37.24 107.992 36.92ZM159.575 32.36C160.108 31.7733 160.668 31.72 161.255 32.2C161.895 32.68 161.975 33.24 161.495 33.88C153.228 44.2267 146.268 51.6133 140.615 56.04C140.562 56.04 140.508 56.0667 140.455 56.12C139.815 56.6533 139.148 57.16 138.455 57.64C134.508 60.36 131.068 61.72 128.135 61.72C127.442 61.72 126.748 61.6667 126.055 61.56C125.362 61.4533 124.562 61.16 123.655 60.68C122.695 60.2 121.895 59.5867 121.255 58.84C120.562 58.04 119.975 56.92 119.495 55.48C119.015 53.9867 118.775 52.2533 118.775 50.28C118.775 47.56 119.388 44.7067 120.615 41.72C121.842 38.7333 123.548 35.96 125.735 33.4C127.922 30.7867 130.242 28.76 132.695 27.32C135.202 25.88 137.548 25.16 139.735 25.16C141.815 25.16 143.362 25.88 144.375 27.32C145.122 28.28 145.548 29.4533 145.655 30.84V30.92C145.655 31.08 145.655 31.24 145.655 31.4C145.655 31.4 145.655 31.4267 145.655 31.48C145.655 32.2267 145.548 32.8933 145.335 33.48C145.228 33.8 145.015 34.04 144.695 34.2C144.428 34.36 144.135 34.3867 143.815 34.28C143.495 34.1733 143.255 33.9867 143.095 33.72C142.935 33.4 142.908 33.08 143.015 32.76C143.175 32.3333 143.255 31.8267 143.255 31.24C143.255 31.1867 143.255 31.1333 143.255 31.08C143.148 30.44 142.882 29.8533 142.455 29.32C142.082 28.7867 141.468 28.52 140.615 28.52C139.335 28.52 137.788 29.16 135.975 30.44C134.162 31.6667 132.402 33.2667 130.695 35.24C128.988 37.2133 127.548 39.5867 126.375 42.36C125.148 45.1333 124.535 47.88 124.535 50.6C124.535 52.68 124.962 54.4933 125.815 56.04C126.668 57.5867 127.948 58.36 129.655 58.36C132.108 58.36 134.855 57.2667 137.895 55.08C138.002 55.0267 138.108 54.9467 138.215 54.84C138.322 54.7333 138.402 54.6533 138.455 54.6C138.562 54.5467 138.695 54.4667 138.855 54.36C138.908 54.3067 138.962 54.28 139.015 54.28C139.015 54.2267 139.042 54.2 139.095 54.2C144.588 49.88 151.415 42.6 159.575 32.36ZM192.622 76.2C192.995 76.2 193.289 76.3067 193.502 76.52C193.715 76.7867 193.822 77.08 193.822 77.4C193.822 77.72 193.715 77.9867 193.502 78.2C193.289 78.4667 192.995 78.6 192.622 78.6C192.569 78.6 192.515 78.6 192.462 78.6C192.462 78.6 192.435 78.6 192.382 78.6C192.062 78.6 191.742 78.6 191.422 78.6C183.689 78.3333 177.609 75.56 173.182 70.28C171.955 68.7867 170.809 67.0267 169.742 65C168.729 62.9733 167.955 61.2933 167.422 59.96C166.942 58.6267 166.302 56.7867 165.502 54.44C164.382 51.0267 163.422 48.6 162.622 47.16C161.875 45.6667 160.915 44.8133 159.742 44.6C157.822 49.2933 156.862 52.9733 156.862 55.64V55.72C156.862 56.4133 156.809 56.92 156.702 57.24C156.382 57.9867 155.795 58.36 154.942 58.36C154.142 58.36 153.502 57.96 153.022 57.16C152.489 56.36 152.222 55.4533 152.222 54.44C152.222 51.1867 153.075 47.2933 154.782 42.76C156.435 38.1733 158.435 33.8533 160.782 29.8C163.129 25.7467 165.449 22.0933 167.742 18.84C170.035 15.5867 171.902 13.2933 173.342 11.96C174.089 11.2667 175.155 10.92 176.542 10.92C177.449 10.92 178.142 11.1333 178.622 11.56C179.369 12.3067 179.289 13.16 178.382 14.12C176.195 16.4667 173.395 20.28 169.982 25.56C166.622 30.7867 163.769 35.9067 161.422 40.92C161.582 40.9733 161.715 41 161.822 41C165.982 40.9467 172.329 36.84 180.862 28.68C180.969 28.6267 181.129 28.4933 181.342 28.28C181.555 28.0667 181.715 27.9067 181.822 27.8C182.409 27.2667 182.969 27.2933 183.502 27.88C184.035 28.4667 184.009 29.0267 183.422 29.56C183.209 29.7733 182.915 30.0667 182.542 30.44C175.395 37.2133 169.662 41.32 165.342 42.76C166.302 43.6133 167.235 44.8133 168.142 46.36C169.049 47.8533 169.742 49.2133 170.222 50.44C170.755 51.6133 171.449 53.3467 172.302 55.64C172.995 57.4533 173.529 58.84 173.902 59.8C174.275 60.7067 174.835 61.9867 175.582 63.64C176.382 65.2933 177.075 66.5733 177.662 67.48C178.302 68.44 179.102 69.5067 180.062 70.68C181.075 71.9067 182.089 72.84 183.102 73.48C184.169 74.1733 185.395 74.76 186.782 75.24C188.169 75.7733 189.662 76.0933 191.262 76.2C191.529 76.2 191.715 76.2 191.822 76.2C192.089 76.2 192.355 76.2 192.622 76.2ZM238.793 8.44C239.433 7.90666 239.993 7.96 240.473 8.6C241.006 9.24 240.953 9.8 240.313 10.28C238.019 12.0933 235.433 13.5333 232.553 14.6C229.673 15.6133 225.966 16.12 221.433 16.12C217.753 16.12 213.806 15.72 209.593 14.92C195.086 35.6133 187.832 50.76 187.832 60.36C187.832 62.76 188.232 64.5733 189.032 65.8C189.246 66.2267 189.246 66.6267 189.032 67C188.819 67.4267 188.472 67.64 187.992 67.64C187.512 67.64 187.032 67.5333 186.552 67.32C186.072 67.16 185.566 66.8133 185.032 66.28C184.446 65.7467 183.966 64.8667 183.592 63.64C183.219 62.36 183.032 60.8133 183.032 59C183.032 56.3867 183.512 53.4 184.472 50.04C185.432 46.6267 186.632 43.3467 188.072 40.2C189.512 37 191.192 33.6933 193.113 30.28C195.086 26.8133 196.899 23.7733 198.553 21.16C200.259 18.5467 201.993 16.04 203.753 13.64C201.406 13.0533 197.939 12.0667 193.353 10.68C189.406 9.56 186.392 8.70666 184.312 8.12C182.179 7.53333 179.486 6.97333 176.232 6.44C172.926 5.85333 169.886 5.56 167.112 5.56C156.499 5.56 148.392 8.57333 142.792 14.6C142.259 15.1867 141.699 15.2133 141.112 14.68C140.526 14.0933 140.499 13.5067 141.032 12.92C142.206 11.6933 143.432 10.6 144.712 9.64C145.992 8.62666 147.672 7.58666 149.752 6.52C151.779 5.45333 154.286 4.62666 157.272 4.04C160.259 3.45333 163.539 3.16 167.112 3.16C169.992 3.16 173.166 3.45333 176.632 4.04C180.046 4.62666 182.846 5.21333 185.032 5.8C187.166 6.38667 190.152 7.26666 193.993 8.44C199.006 9.88 202.766 10.92 205.273 11.56C206.393 10.0133 207.353 8.76 208.153 7.8C208.846 6.94666 209.833 6.22666 211.113 5.64C212.393 5 213.379 4.94666 214.073 5.48C215.033 6.22666 214.953 7.37333 213.833 8.92C213.726 9.13333 213.406 9.58666 212.872 10.28C212.126 11.3467 211.539 12.1733 211.113 12.76C214.739 13.4 218.179 13.72 221.433 13.72C223.886 13.72 226.126 13.56 228.153 13.24C230.233 12.8667 231.966 12.36 233.353 11.72C234.793 11.0267 235.859 10.4667 236.553 10.04C237.246 9.61333 237.993 9.08 238.793 8.44ZM247.559 32.44C247.986 31.8 248.519 31.72 249.159 32.2C249.853 32.6267 249.959 33.1867 249.479 33.88C242.813 42.84 236.653 49.7467 230.999 54.6L230.919 54.68C230.866 54.68 230.839 54.7067 230.839 54.76C226.946 58.0133 223.826 59.64 221.479 59.64C217.533 59.64 215.559 57.1333 215.559 52.12C215.559 49.72 216.066 47.1067 217.079 44.28C215.159 45.56 213.453 46.2 211.959 46.2C210.573 46.2 209.426 45.6667 208.519 44.6C207.613 43.48 207.159 42.04 207.159 40.28C207.159 38.2533 207.799 36.0933 209.079 33.8C210.359 31.4533 212.146 29.4267 214.439 27.72C216.786 26.0133 219.239 25.16 221.799 25.16C222.813 25.16 223.773 25.4 224.679 25.88C224.679 25.88 224.706 25.88 224.759 25.88C225.453 26.2533 226.093 26.8133 226.679 27.56C226.733 27.56 226.786 27.5867 226.839 27.64C227.693 28.76 228.226 30.0933 228.439 31.64C228.493 31.6933 228.519 31.72 228.519 31.72C229.746 32.6267 229.879 33.8267 228.919 35.32C228.813 35.48 228.546 35.8533 228.119 36.44C223.426 43.0533 221.079 48.4933 221.079 52.76C221.079 53.8267 221.213 54.6533 221.479 55.24C221.746 55.7733 221.986 56.0933 222.199 56.2C222.413 56.2533 222.679 56.28 222.999 56.28C224.439 56.28 226.573 55.1067 229.399 52.76C229.453 52.7067 229.506 52.68 229.559 52.68C232.493 50.1733 235.639 46.9733 238.999 43.08C242.359 39.1867 245.213 35.64 247.559 32.44ZM218.519 40.04C218.786 39.8267 219.053 39.5867 219.319 39.32C220.759 36.6 222.333 34.28 224.039 32.36C224.519 31.7733 225.133 31.4 225.879 31.24C225.666 30.3867 225.346 29.6667 224.919 29.08C224.866 29.08 224.839 29.08 224.839 29.08C224.786 29.0267 224.733 28.9733 224.679 28.92C224.626 28.8133 224.546 28.7067 224.439 28.6C224.333 28.4933 224.226 28.4133 224.119 28.36C224.119 28.3067 224.093 28.28 224.039 28.28C223.559 27.96 223.026 27.8 222.439 27.8C220.519 27.8 218.439 29.2667 216.199 32.2C214.013 35.08 212.919 37.7733 212.919 40.28C212.919 40.92 212.999 41.4533 213.159 41.88C213.373 42.3067 213.639 42.52 213.959 42.52C215.026 42.52 216.546 41.6933 218.519 40.04ZM270.113 32.44C270.593 31.8 271.153 31.7467 271.793 32.28C272.433 32.76 272.513 33.32 272.033 33.96C270.646 35.72 268.673 37.88 266.113 40.44C263.553 43 260.966 45.2667 258.353 47.24C258.299 47.24 258.246 47.2667 258.193 47.32C257.926 47.5333 257.579 47.8 257.153 48.12C253.153 51 249.979 52.44 247.633 52.44C245.766 52.44 244.326 51.88 243.312 50.76C242.246 49.64 241.712 48.0933 241.712 46.12C241.712 43.56 242.432 40.7867 243.872 37.8C245.312 34.76 246.966 32.1467 248.833 29.96C249.473 29.2667 250.299 28.84 251.313 28.68C252.326 28.52 253.153 28.68 253.793 29.16C254.913 30.0133 255.019 31.1333 254.113 32.52C253.953 32.7867 253.606 33.2933 253.073 34.04C249.179 39.2133 247.232 43.4533 247.232 46.76C247.232 48.3067 247.873 49.08 249.153 49.08C249.953 49.08 251.179 48.6533 252.833 47.8C254.539 46.9467 255.819 46.1733 256.673 45.48C256.779 45.4267 256.859 45.3733 256.913 45.32C259.313 43.5067 261.739 41.4 264.193 39C266.646 36.5467 268.619 34.36 270.113 32.44ZM257.633 24.44C257.099 24.9733 256.459 25.24 255.713 25.24C254.966 25.24 254.326 24.9733 253.793 24.44C253.313 23.9067 253.073 23.2667 253.073 22.52C253.073 21.7733 253.313 21.1333 253.793 20.6C254.326 20.0667 254.966 19.8 255.713 19.8C256.459 19.8 257.099 20.0667 257.633 20.6C258.166 21.1333 258.433 21.7733 258.433 22.52C258.433 23.2667 258.166 23.9067 257.633 24.44ZM307.651 32.36C308.131 31.7733 308.691 31.72 309.331 32.2C309.971 32.68 310.051 33.24 309.571 33.88C307.491 36.6 303.357 41.0533 297.171 47.24C291.037 53.3733 285.384 58.36 280.211 62.2V62.28C279.891 62.4933 279.544 62.7333 279.171 63C279.171 63 279.144 63.0267 279.091 63.08C274.344 66.4933 270.771 68.2 268.371 68.2C267.731 68.2 267.037 68.0133 266.291 67.64C265.491 67.2667 264.691 66.7067 263.891 65.96C263.091 65.16 262.424 64.04 261.891 62.6C261.357 61.1067 261.091 59.4 261.091 57.48C261.091 52.36 262.424 46.7867 265.091 40.76C267.757 34.7333 271.517 28.8133 276.371 23C280.744 17.7733 285.224 13.56 289.811 10.36C294.397 7.16 298.264 5.56 301.411 5.56C302.851 5.56 303.971 5.96 304.771 6.76C305.624 7.56 306.051 8.65333 306.051 10.04C306.051 10.3067 306.024 10.6 305.971 10.92C305.971 10.92 305.971 10.9467 305.971 11C305.971 11.0533 305.971 11.08 305.971 11.08C305.597 13.0533 304.317 15.2667 302.131 17.72C299.997 20.12 297.571 22.3333 294.851 24.36C288.451 29.1067 282.184 31.9333 276.051 32.84C269.917 42.0133 266.851 50.5467 266.851 58.44C266.851 60.2533 267.144 61.6933 267.731 62.76C268.317 63.7733 269.144 64.28 270.211 64.28C272.397 64.28 275.144 63.0267 278.451 60.52H278.531C278.584 60.4667 278.664 60.4133 278.771 60.36C278.771 60.3067 278.771 60.28 278.771 60.28H278.851C283.757 56.5467 289.224 51.72 295.251 45.8C301.277 39.8267 305.411 35.3467 307.651 32.36ZM281.731 25.4C280.397 26.9467 279.171 28.4933 278.051 30.04C283.117 28.8133 288.237 26.28 293.411 22.44C295.384 20.9467 297.117 19.4267 298.611 17.88C300.157 16.3333 301.331 14.9733 302.131 13.8C302.931 12.5733 303.411 11.5067 303.571 10.6C303.624 10.28 303.597 10.04 303.491 9.88C303.384 9.77333 303.197 9.72 302.931 9.72C301.651 9.72 299.891 10.3333 297.651 11.56C295.464 12.7333 292.931 14.5467 290.051 17C287.171 19.4533 284.397 22.2533 281.731 25.4Z" fill="black"/>
</svg>
